HIERARCHY
ROOT Hips
{
	OFFSET 0.000000 8.830580 0.000000
	CHANNELS 6 Xposition Yposition Zposition Zrotation Yrotation Xrotation 
	JOINT Spine
	{
		OFFSET 0.000000 0.010000 0.000000
		CHANNELS 3 Zrotation Yrotation Xrotation
		JOINT Spine1
		{
			OFFSET 0.000000 2.459130 0.000000
			CHANNELS 3 Zrotation Yrotation Xrotation
			JOINT Neck
			{
				OFFSET 0.000000 2.484630 0.000000
				CHANNELS 3 Zrotation Yrotation Xrotation
				JOINT Head_virtual
				{
					OFFSET 0.000000 0.000000 0.000000
					CHANNELS 3 Zrotation Yrotation Xrotation
					JOINT Head
					{
						OFFSET 0.000000 0.927525 0.000000
						CHANNELS 3 Zrotation Yrotation Xrotation
						End Site
						{
							OFFSET 0.000000 0.000000 0.000000
						}
					}
				}
				JOINT LeftUpArm_virtual
				{
					OFFSET 0.000000 0.000000 0.000000
					CHANNELS 3 Zrotation Yrotation Xrotation
					JOINT LeftUpArm
					{
						OFFSET 1.248820 0.000000 0.000000
						CHANNELS 3 Zrotation Yrotation Xrotation
						JOINT LeftForeArm
						{
							OFFSET 2.597580 0.000000 0.000000
							CHANNELS 3 Zrotation Yrotation Xrotation
							JOINT LeftHand
							{
								OFFSET 2.455420 0.000000 0.000000
								CHANNELS 3 Zrotation Yrotation Xrotation
								End Site
								{
									OFFSET 0.000000 0.000000 0.000000
								}
							}
						}
					}
				}
				JOINT RightUpArm_virtual
				{
					OFFSET -0.000000 -0.000000 -0.000000
					CHANNELS 3 Zrotation Yrotation Xrotation
					JOINT RightUpArm
					{
						OFFSET -1.248820 -0.000000 -0.000000
						CHANNELS 3 Zrotation Yrotation Xrotation
						JOINT RightForeArm
						{
							OFFSET -2.597580 -0.000000 -0.000000
							CHANNELS 3 Zrotation Yrotation Xrotation
							JOINT RightHand
							{
								OFFSET -2.455420 -0.000000 -0.000000
								CHANNELS 3 Zrotation Yrotation Xrotation
								End Site
								{
									OFFSET 0.000000 0.000000 0.000000
								}
							}
						}
					}
				}
			}
		}
	}
	JOINT LeftUpLeg
	{
		OFFSET 1.271939 0.000000 0.000000
		CHANNELS 3 Zrotation Yrotation Xrotation
		JOINT LeftLowLeg
		{
			OFFSET 0.000000 -4.342910 0.000000
			CHANNELS 3 Zrotation Yrotation Xrotation
			JOINT LeftFoot
			{
				OFFSET 0.000000 -4.487670 0.000000
				CHANNELS 3 Zrotation Yrotation Xrotation
				JOINT LeftToeBase
				{
					OFFSET 0.000000 0.000000 1.515070
					CHANNELS 3 Zrotation Yrotation Xrotation
					End Site
					{
						OFFSET 0.000000 0.000000 0.000000
					}
				}
			}
		}
	}
	JOINT RightUpLeg
	{
		OFFSET -1.271939 0.000000 0.000000
		CHANNELS 3 Zrotation Yrotation Xrotation
		JOINT RightLowLeg
		{
			OFFSET 0.000000 -4.342910 0.000000
			CHANNELS 3 Zrotation Yrotation Xrotation
			JOINT RightFoot
			{
				OFFSET 0.000000 -4.487670 0.000000
				CHANNELS 3 Zrotation Yrotation Xrotation
				JOINT RightToeBase
				{
					OFFSET 0.000000 0.000000 1.515070
					CHANNELS 3 Zrotation Yrotation Xrotation
					End Site
					{
						OFFSET 0.000000 0.000000 0.000000
					}
				}
			}
		}
	}
}
MOTION
Frames: 8
Frame Time: 0.041667
-11.730772 9.245133 26.349044 -168.166231 -63.848388 165.773712 4.417950 0.613202 -17.134011 3.147645 -1.179061 30.780927 0.000000 0.000000 0.000000 -0.892362 -5.467186 15.623511 14.160134 1.252356 -57.836558 -30.675600 -0.564285 -12.536400 -38.413200 12.722600 34.169800 0.000000 -16.658501 0.000000 -9.949180 11.339200 3.119520 23.794399 4.078430 -5.441540 37.150299 14.681700 6.999000 0.000000 27.569799 0.000000 -1.327320 4.875480 -0.437243 10.326087 -6.162314 -7.154897 0.000000 0.000000 18.878201 -9.503603 1.867594 10.536321 0.000000 0.000000 -24.788780 10.776839 7.704942 8.453563 0.000000 0.000000 5.243650 12.622233 -26.953393 6.860683 0.000000 0.000000 -10.289910 
-11.694323 9.249359 26.374771 -168.095411 -64.487831 165.707739 4.251858 0.477415 -17.046510 3.741503 -1.124472 30.783873 0.000000 0.000000 0.000000 -0.942946 -5.612545 15.566744 14.661738 0.963484 -58.000163 -30.998199 -0.630760 -12.042600 -38.415798 12.454100 34.279900 0.000000 -16.570000 0.000000 -10.113700 11.077500 3.283140 23.773199 4.079450 -5.163980 37.440201 14.352200 7.181320 0.000000 26.812901 0.000000 -1.239300 4.616770 0.176040 10.479261 -6.715803 -7.056764 0.000000 0.000000 20.502899 -8.883528 2.904383 9.815062 0.000000 0.000000 -24.923460 10.690776 7.738268 8.120512 0.000000 0.000000 5.380820 12.699212 -27.478593 6.767231 0.000000 0.000000 -10.218940 
-11.660332 9.253252 26.397755 -167.941586 -65.144744 165.514623 3.875041 0.122717 -17.017241 4.681828 -1.119528 30.996471 0.000000 0.000000 0.000000 -1.063070 -5.743740 15.245144 15.022168 0.542664 -58.087825 -31.376900 -0.675355 -12.127300 -38.425598 12.361900 34.335300 0.000000 -16.622801 0.000000 -10.130900 11.087100 4.114300 23.507700 4.052460 -5.006380 37.901600 14.086200 7.410880 0.000000 25.807899 0.000000 -0.755626 4.268690 0.782980 10.704244 -7.137005 -6.841821 0.000000 0.000000 21.975100 -8.456826 3.996971 9.034076 0.000000 0.000000 -24.744770 10.604984 7.475886 7.831966 0.000000 0.000000 5.545330 12.685367 -27.801819 6.762925 0.000000 0.000000 -10.161330 
-11.630599 9.257633 26.419580 -167.785752 -65.787506 165.323339 3.432067 -0.293524 -17.062231 5.676962 -1.134077 31.270716 0.000000 0.000000 0.000000 -1.224900 -5.821412 14.851578 15.324830 0.068327 -58.076165 -31.769100 -0.753766 -12.225400 -38.381599 12.191500 34.102402 0.000000 -16.822700 0.000000 -10.006300 11.251800 4.445480 23.221100 4.000560 -4.990790 38.425598 13.759200 7.739240 0.000000 24.611799 0.000000 -0.082709 3.786940 1.815080 10.971193 -7.533273 -6.554366 0.000000 0.000000 23.278999 -7.954495 5.202331 8.376923 0.000000 0.000000 -24.656450 10.532591 7.375898 7.593783 0.000000 0.000000 5.665030 12.650814 -28.221049 6.793880 0.000000 0.000000 -10.143320 
-11.605023 9.260994 26.441026 -167.528533 -66.493475 165.059454 2.993248 -0.778994 -17.094429 6.596487 -1.205305 31.378732 0.000000 0.000000 0.000000 -1.443287 -5.830916 14.616951 15.578016 -0.389186 -58.107925 -32.186699 -0.895404 -12.318100 -38.181000 12.094600 33.976501 0.000000 -17.100500 0.000000 -9.422660 11.147200 4.472950 23.039700 3.916510 -4.888410 38.903900 13.414800 8.174640 0.000000 23.312401 0.000000 0.510847 3.166310 3.247410 11.292273 -7.999563 -6.277619 0.000000 0.000000 24.461500 -7.312814 6.436846 7.776886 0.000000 0.000000 -24.519760 10.458898 7.150671 7.366005 0.000000 0.000000 5.762020 12.698405 -28.579065 6.768050 0.000000 0.000000 -10.096390 
-11.583411 9.262924 26.463391 -167.196360 -67.202401 164.737184 2.637947 -1.225088 -17.143339 7.285505 -1.315319 31.448333 0.000000 0.000000 0.000000 -1.575048 -5.886116 14.373142 15.672169 -0.734477 -58.069054 -32.491600 -0.959138 -12.340700 -37.979198 11.783000 33.841599 0.000000 -17.392599 0.000000 -8.630340 11.019200 4.195500 22.983601 3.836380 -4.821830 39.348701 12.991400 8.686040 0.000000 21.991899 0.000000 1.300950 2.451960 5.040250 11.642826 -8.590925 -5.959180 0.000000 0.000000 25.430700 -6.306369 7.757112 7.257000 0.000000 0.000000 -24.415680 10.429241 7.108535 7.196888 0.000000 0.000000 5.765080 12.734641 -29.145025 6.711232 0.000000 0.000000 -10.106140 
-11.562032 9.263115 26.487928 -166.764145 -67.815396 164.400400 2.276097 -1.686130 -17.190775 8.079227 -1.406744 31.439557 0.000000 0.000000 0.000000 -1.851111 -5.802089 14.112130 15.882397 -1.183464 -58.119143 -32.855598 -1.033610 -12.351500 -37.769299 11.369000 33.446701 0.000000 -17.725599 0.000000 -7.721170 10.802000 3.675870 22.871201 3.697980 -4.845500 39.761902 12.481600 9.386650 0.000000 20.739700 0.000000 2.093940 1.673800 6.735830 12.032393 -9.061429 -5.628820 0.000000 0.000000 26.113800 -5.178610 9.210794 6.724913 0.000000 0.000000 -24.304280 10.422142 7.099007 6.917132 0.000000 0.000000 5.840900 12.803529 -29.631841 6.609057 0.000000 0.000000 -10.145300 
-11.544478 9.262391 26.512492 -166.318512 -68.399755 164.068699 1.909904 -2.186735 -17.274174 8.829242 -1.531396 31.400091 0.000000 0.000000 0.000000 -2.100072 -5.764683 13.874409 15.856361 -1.584297 -58.142227 -33.273399 -1.125350 -12.417000 -37.440601 10.966600 33.030102 0.000000 -18.123400 0.000000 -6.745290 10.530400 2.924870 22.764200 3.645990 -4.716280 40.111099 11.923500 10.021100 0.000000 19.558100 0.000000 2.819890 0.896651 8.521210 12.433758 -8.792905 -5.215118 0.000000 0.000000 26.471201 -3.838378 10.654760 6.378761 0.000000 0.000000 -24.377140 10.409862 7.136291 6.682016 0.000000 0.000000 5.846300 12.867252 -30.115275 6.465705 0.000000 0.000000 -10.401400 
